<svg xmlns="http://www.w3.org/2000/svg" width="175.109" height="48" viewBox="0 0 175.109 48"><path data-name="Path 5681" d="M35.864 23.725l.138.275-12 24-24-48h16l14.16 28.319a14.891 14.891 0 0 0 5.7-4.594m22.3 4.594L44.002 0h-16l24 48 12-24-.138-.275a14.89 14.89 0 0 1-5.7 4.594m39.894-7.613V8h7.6v1.731h-5.677v3.712h5.283v1.713h-5.282v3.819h5.677v1.731zm-3.567 0v-5.55h-5.877v5.55h-1.927V8h1.927v5.425h5.877V8h1.927v12.707zM76.252 7.999l.867 1.731h2.887v10.976h1.928V9.731h3.326V8zm94.8 22.995h-3.743v4.99h-1.925V23.296h5.668a3.855 3.855 0 1 1 0 7.7m-.107-5.97h-3.636v4.224h3.636a2.116 2.116 0 1 0 0-4.224m-13.456.029a4.607 4.607 0 1 1-4.607 4.607 4.612 4.612 0 0 1 4.607-4.607m0-1.928a6.536 6.536 0 1 0 6.536 6.536 6.536 6.536 0 0 0-6.536-6.536m-58.308 1.928a4.607 4.607 0 1 1-4.607 4.607 4.613 4.613 0 0 1 4.607-4.607m0-1.928a6.536 6.536 0 1 0 6.536 6.536 6.536 6.536 0 0 0-6.536-6.536m18.043 12.868h-2.114l-2.678-5.353h-3.279v5.353h-1.927v-12.7h5.732a3.634 3.634 0 0 1 3.943 3.711 3.368 3.368 0 0 1-2.481 3.377zm-4.409-10.972h-3.663v3.979h3.663a2 2 0 1 0 0-3.979m-20.093-1.725l-3.911 12.7h-1.452l-2.871-9.443-2.871 9.443h-1.453l-3.911-12.7h2.011l2.659 9.026 2.706-9.026h1.714l2.706 9.056 2.659-9.056zm56.872 12.7v-12.7h-1.93v5.423h-5.875v-5.423h-1.925v12.7h1.927v-5.549h5.873v5.549zm-20.866.006l-4.087-8.181 3.733-4.522h-2.382l-5.238 6.455v-6.455h-1.927v12.7h1.927V32.53l2.624-3.178 3.336 6.65zm6.356-6.922l-1.751-.588c-1.355-.453-1.933-1.006-1.933-1.849 0-.44.171-1.875 2.365-1.875a2.434 2.434 0 0 1 2.531 2.255l.018.113h1.9l-.011-.145c-.193-2.419-1.846-3.863-4.421-3.863-2.89 0-4.4 1.793-4.4 3.564 0 1.627 1.038 2.78 3.173 3.524l1.77.62c1.388.487 2.063 1.108 2.063 1.9 0 1.041-1.064 1.826-2.474 1.826-1.679 0-2.573-.714-2.731-2.183l-.013-.12h-2.026l.013.146c.213 2.413 1.911 3.8 4.658 3.8 2.7 0 4.585-1.479 4.585-3.6 0-1.605-1.117-2.79-3.32-3.524" fill="#223151"/></svg>